<?xml version="1.0" encoding="UTF-8"?>
<svg version="1.1" xmlns="http://www.w3.org/2000/svg" width="637" height="107">
<path d="M0 0 C210.21 0 420.42 0 637 0 C637 35.31 637 70.62 637 107 C426.79 107 216.58 107 0 107 C0 71.69 0 36.38 0 0 Z " fill="#FEFEFE" transform="translate(0,0)"/>
<path d="M0 0 C39.5 0 39.5 0 47 6 C52.69752113 11.8669069 53.4150264 16.63704016 53.34375 24.62890625 C52.76914228 30.26397969 50.62796449 34.63547449 46.40234375 38.4375 C44.27294333 39.94429931 42.65366503 41 40 41 C40.38333496 41.73114014 40.76666992 42.46228027 41.16162109 43.21557617 C42.90190711 46.53825191 44.63848864 49.86285009 46.375 53.1875 C46.97828125 54.33798828 47.5815625 55.48847656 48.203125 56.67382812 C48.78320312 57.78564453 49.36328125 58.89746094 49.9609375 60.04296875 C50.76217041 61.57473755 50.76217041 61.57473755 51.57958984 63.13745117 C52.84999384 65.69769298 53.93852644 68.34631609 55 71 C50.05 71 45.1 71 40 71 C39.15695312 69.37449219 38.31390625 67.74898438 37.4453125 66.07421875 C36.33863198 63.94526555 35.2318562 61.81636187 34.125 59.6875 C33.29162109 58.0797168 33.29162109 58.0797168 32.44140625 56.43945312 C31.90644531 55.41142578 31.37148438 54.38339844 30.8203125 53.32421875 C30.32805176 52.37635498 29.83579102 51.42849121 29.32861328 50.4519043 C27.97152513 47.85838436 27.97152513 47.85838436 26 45 C21.71 44.67 17.42 44.34 13 44 C13 52.91 13 61.82 13 71 C8.71 71 4.42 71 0 71 C0 47.57 0 24.14 0 0 Z " fill="#6E33ED" transform="translate(447,17)"/>
<path d="M0 0 C5.28 0 10.56 0 16 0 C18.94900987 6.49121376 21.62087491 13.03913859 24.15234375 19.703125 C24.5343544 20.70277283 24.91636505 21.70242065 25.30995178 22.73236084 C26.52142704 25.90403785 27.7295477 29.07697981 28.9375 32.25 C30.14013382 35.40174668 31.34344336 38.55323483 32.54678345 41.70471191 C33.31854398 43.72711769 34.0895341 45.74981764 34.85971069 47.77282715 C36.45311821 51.95740926 38.04921157 56.1404382 39.68017578 60.31054688 C40.36635986 62.0672168 40.36635986 62.0672168 41.06640625 63.859375 C41.44869385 64.82842773 41.83098145 65.79748047 42.22485352 66.79589844 C43 69 43 69 43 71 C38.38 71 33.76 71 29 71 C27.02 66.05 25.04 61.1 23 56 C12.77 55.67 2.54 55.34 -8 55 C-8.66 57.97 -9.32 60.94 -10 64 C-10.94280904 66.3570226 -11.92378945 68.70082291 -13 71 C-17.62 71 -22.24 71 -27 71 C-18.41942039 47.16707655 -9.27816826 23.56910277 0 0 Z " fill="#6F35ED" transform="translate(57,17)"/>
<path d="M0 0 C15.51 0 31.02 0 47 0 C47 3.96 47 7.92 47 12 C36.11 12 25.22 12 14 12 C14 17.61 14 23.22 14 29 C24.23 29 34.46 29 45 29 C45 32.96 45 36.92 45 41 C34.77 41 24.54 41 14 41 C14 46.94 14 52.88 14 59 C24.89 59 35.78 59 47 59 C47 62.96 47 66.92 47 71 C31.49 71 15.98 71 0 71 C0 47.57 0 24.14 0 0 Z " fill="#7238ED" transform="translate(381,17)"/>
<path d="M0 0 C15.18 0 30.36 0 46 0 C46 3.96 46 7.92 46 12 C35.11 12 24.22 12 13 12 C13 17.94 13 23.88 13 30 C23.23 30 33.46 30 44 30 C44 33.63 44 37.26 44 41 C33.77 41 23.54 41 13 41 C13 46.94 13 52.88 13 59 C23.89 59 34.78 59 46 59 C46 62.96 46 66.92 46 71 C30.82 71 15.64 71 0 71 C0 47.57 0 24.14 0 0 Z " fill="#6E33ED" transform="translate(257,17)"/>
<path d="M0 0 C0 4.29 0 8.58 0 13 C-1.299375 12.505 -2.59875 12.01 -3.9375 11.5 C-8.91944622 10.00327796 -13.58829265 9.66515591 -18.75 9.625 C-19.47050537 9.61146484 -20.19101074 9.59792969 -20.93334961 9.58398438 C-27.1453559 9.63564944 -31.07696053 11.30056977 -35.6875 15.375 C-41.47284296 21.94214606 -42.51117599 28.13726833 -42.39453125 36.7265625 C-41.5895965 43.40513001 -38.98084268 49.35221237 -33.90234375 53.86328125 C-26.86843595 58.03195783 -18.93184445 57.97849173 -11 57 C-8.34935961 56.16540647 -6.06772208 55.20857897 -3.63671875 53.875 C-2 53 -2 53 0 53 C0 57.29 0 61.58 0 66 C-10.25202854 71.46774855 -22.46203601 71.80847119 -33.6796875 69.1171875 C-43.34133629 65.40495094 -49.64869615 59.89774292 -53.9921875 50.52734375 C-56.20362958 44.98159558 -57.3626669 40.24207842 -57.3125 34.25 C-57.30686035 33.54480225 -57.3012207 32.83960449 -57.29541016 32.11303711 C-57.05232669 21.60148248 -53.85496678 12.65350556 -46.18359375 5.24609375 C-44.1973312 3.64504576 -42.19084058 2.30577274 -40 1 C-39.3296875 0.58621094 -38.659375 0.17242188 -37.96875 -0.25390625 C-27.00714305 -5.79260554 -11.086685 -4.434674 0 0 Z " fill="#7035ED" transform="translate(164,19)"/>
<path d="M0 0 C0.80824219 -0.020625 1.61648437 -0.04125 2.44921875 -0.0625 C8.46672343 -0.10101203 13.12754781 1.10488772 18.75 3.25 C18.75 7.21 18.75 11.17 18.75 15.25 C17.43 14.92 16.11 14.59 14.75 14.25 C5.96457399 12.52295044 -5.75491434 11.01258997 -13.70703125 15.98046875 C-18.96961255 20.31044071 -21.92314129 25.04678464 -22.62109375 31.88671875 C-22.87542189 40.3283368 -22.47717994 47.20404786 -17.25 54.25 C-12.67373573 58.82626427 -8.08043075 60.489303 -1.62695312 60.62890625 C-0.94568359 60.62761719 -0.26441406 60.62632813 0.4375 60.625 C1.14068359 60.62628906 1.84386719 60.62757812 2.56835938 60.62890625 C8.67219801 60.50582243 13.26243126 58.99378437 18.75 56.25 C18.75 60.54 18.75 64.83 18.75 69.25 C8.0488548 74.07600666 -4.81004497 75.39338713 -16.1875 71.8125 C-24.16604305 68.37053707 -31.03662251 62.28970135 -34.53125 54.26953125 C-34.7684375 53.60308594 -35.005625 52.93664062 -35.25 52.25 C-35.77980469 50.94869141 -35.77980469 50.94869141 -36.3203125 49.62109375 C-38.86260707 40.40260544 -39.05836505 27.05978509 -34.69921875 18.41796875 C-28.88611863 9.72182167 -22.28651793 3.44306387 -12.03125 0.64453125 C-8.01740225 0.07515116 -4.04962627 0.02534977 0 0 Z " fill="#6F34ED" transform="translate(218.25,15.75)"/>
<path d="M0 0 C15.51 0 31.02 0 47 0 C47 3.96 47 7.92 47 12 C36.11 12 25.22 12 14 12 C14 18.27 14 24.54 14 31 C22.58 31 31.16 31 40 31 C40 34.63 40 38.26 40 42 C31.42 42 22.84 42 14 42 C14 51.57 14 61.14 14 71 C9.38 71 4.76 71 0 71 C0 47.57 0 24.14 0 0 Z " fill="#66CE1A" transform="translate(518,17)"/>
<path d="M0 0 C4.62 0 9.24 0 14 0 C14 19.47 14 38.94 14 59 C23.9 59 33.8 59 44 59 C44 62.96 44 66.92 44 71 C29.48 71 14.96 71 0 71 C0 47.57 0 24.14 0 0 Z " fill="#7137ED" transform="translate(322,17)"/>
<path d="M0 0 C4.29 0 8.58 0 13 0 C13 23.43 13 46.86 13 71 C8.71 71 4.42 71 0 71 C0 47.57 0 24.14 0 0 Z " fill="#62CD14" transform="translate(579,17)"/>
<path d="M0 0 C3.031875 -0.061875 6.06375 -0.12375 9.1875 -0.1875 C10.60712036 -0.22846802 10.60712036 -0.22846802 12.05541992 -0.27026367 C16.84936401 -0.3175874 20.15522761 -0.20273273 24 3 C26.44605705 6.66908557 26.83946402 9.73618769 26 14 C23.82425584 16.69105198 22.08934144 18.45532928 19 20 C17.55151418 20.08342159 16.09929131 20.10732861 14.6484375 20.09765625 C13.88192871 20.09515869 13.11541992 20.09266113 12.32568359 20.09008789 C11.35195801 20.08098389 10.37823242 20.07187988 9.375 20.0625 C6.28125 20.041875 3.1875 20.02125 0 20 C0 13.4 0 6.8 0 0 Z " fill="#FBF9FE" transform="translate(460,29)"/>
<path d="M0 0 C0.66 0 1.32 0 2 0 C3.51041757 4.07955572 5.0065145 8.16421836 6.5 12.25 C6.92925781 13.40886719 7.35851562 14.56773438 7.80078125 15.76171875 C8.40986328 17.43427734 8.40986328 17.43427734 9.03125 19.140625 C9.40830078 20.16704102 9.78535156 21.19345703 10.17382812 22.25097656 C11 25 11 25 11 29 C4.07 29 -2.86 29 -10 29 C-6.6875 19.5625 -6.6875 19.5625 -5.6628418 16.64672852 C-3.72388595 11.11435406 -1.83543718 5.56757786 0 0 Z " fill="#FAF9FE" transform="translate(64,31)"/>
</svg>
